<mxfile host="app.diagrams.net" agent="Mozilla/5.0 (Macintosh; Intel Mac OS X 10_15_7) AppleWebKit/537.36 (KHTML, like Gecko) Chrome/134.0.0.0 Safari/537.36" version="26.2.6">
  <diagram name="第 1 页" id="mAxnPa-wIW2UGlIj4MMn">
    <mxGraphModel dx="1334" dy="764" grid="1" gridSize="10" guides="1" tooltips="1" connect="1" arrows="1" fold="1" page="1" pageScale="1" pageWidth="9997" pageHeight="11169" math="0" shadow="0">
      <root>
        <mxCell id="0" />
        <mxCell id="1" parent="0" />
        <mxCell id="Ma0VbYQPzI4zfsSaGSA2-1" value="&lt;span style=&quot;font-size: 15px;&quot;&gt;测试用例管理&lt;/span&gt;" style="swimlane;html=1;childLayout=stackLayout;startSize=20;rounded=0;shadow=0;labelBackgroundColor=none;strokeWidth=1;fontFamily=Verdana;fontSize=8;align=center;fillColor=#dae8fc;strokeColor=#6c8ebf;" vertex="1" parent="1">
          <mxGeometry x="590" y="90" width="1245" height="800" as="geometry" />
        </mxCell>
        <mxCell id="Ma0VbYQPzI4zfsSaGSA2-2" value="用户" style="swimlane;html=1;startSize=20;fillColor=#fff2cc;strokeColor=#d6b656;" vertex="1" parent="Ma0VbYQPzI4zfsSaGSA2-1">
          <mxGeometry y="20" width="130" height="780" as="geometry" />
        </mxCell>
        <mxCell id="Ma0VbYQPzI4zfsSaGSA2-219" style="edgeStyle=orthogonalEdgeStyle;rounded=0;orthogonalLoop=1;jettySize=auto;html=1;" edge="1" parent="Ma0VbYQPzI4zfsSaGSA2-2" source="Ma0VbYQPzI4zfsSaGSA2-3">
          <mxGeometry relative="1" as="geometry">
            <mxPoint x="360" y="70" as="targetPoint" />
            <Array as="points">
              <mxPoint x="220" y="160" />
              <mxPoint x="220" y="70" />
            </Array>
          </mxGeometry>
        </mxCell>
        <mxCell id="Ma0VbYQPzI4zfsSaGSA2-3" value="&lt;h5&gt;&lt;span style=&quot;font-size: 12px;&quot;&gt;Excel文件&lt;/span&gt;&lt;/h5&gt;" style="rounded=1;whiteSpace=wrap;html=1;shadow=0;labelBackgroundColor=none;strokeWidth=1;fontFamily=Verdana;fontSize=8;align=center;fillColor=#f8cecc;strokeColor=#b85450;" vertex="1" parent="Ma0VbYQPzI4zfsSaGSA2-2">
          <mxGeometry x="15" y="130" width="100" height="60" as="geometry" />
        </mxCell>
        <mxCell id="Ma0VbYQPzI4zfsSaGSA2-53" value="&lt;h5&gt;&lt;span style=&quot;font-size: 12px;&quot;&gt;历史Excel文件&lt;/span&gt;&lt;/h5&gt;" style="rounded=1;whiteSpace=wrap;html=1;shadow=0;labelBackgroundColor=none;strokeWidth=1;fontFamily=Verdana;fontSize=8;align=center;fillColor=#f8cecc;strokeColor=#b85450;" vertex="1" parent="Ma0VbYQPzI4zfsSaGSA2-2">
          <mxGeometry x="15" y="500" width="100" height="60" as="geometry" />
        </mxCell>
        <mxCell id="Ma0VbYQPzI4zfsSaGSA2-4" value="数据清洗" style="swimlane;html=1;startSize=20;fillColor=#fff2cc;strokeColor=#d6b656;" vertex="1" parent="Ma0VbYQPzI4zfsSaGSA2-1">
          <mxGeometry x="130" y="20" width="180" height="780" as="geometry" />
        </mxCell>
        <mxCell id="Ma0VbYQPzI4zfsSaGSA2-14" value="&lt;h5&gt;&lt;span style=&quot;font-size: 12px;&quot;&gt;数据清洗脚本&lt;/span&gt;&lt;/h5&gt;" style="rounded=1;whiteSpace=wrap;html=1;shadow=0;labelBackgroundColor=none;strokeWidth=1;fontFamily=Verdana;fontSize=8;align=center;fillColor=#dae8fc;strokeColor=#6c8ebf;" vertex="1" parent="Ma0VbYQPzI4zfsSaGSA2-4">
          <mxGeometry x="40" y="500" width="100" height="60" as="geometry" />
        </mxCell>
        <mxCell id="Ma0VbYQPzI4zfsSaGSA2-61" style="edgeStyle=orthogonalEdgeStyle;rounded=0;orthogonalLoop=1;jettySize=auto;html=1;entryX=0;entryY=0.5;entryDx=0;entryDy=0;" edge="1" parent="Ma0VbYQPzI4zfsSaGSA2-1" source="Ma0VbYQPzI4zfsSaGSA2-53" target="Ma0VbYQPzI4zfsSaGSA2-14">
          <mxGeometry relative="1" as="geometry" />
        </mxCell>
        <mxCell id="Ma0VbYQPzI4zfsSaGSA2-20" value="Service" style="swimlane;html=1;startSize=20;fillColor=#fff2cc;strokeColor=#d6b656;" vertex="1" parent="Ma0VbYQPzI4zfsSaGSA2-1">
          <mxGeometry x="310" y="20" width="220" height="780" as="geometry" />
        </mxCell>
        <mxCell id="Ma0VbYQPzI4zfsSaGSA2-138" style="edgeStyle=orthogonalEdgeStyle;rounded=0;orthogonalLoop=1;jettySize=auto;html=1;entryX=0.5;entryY=0;entryDx=0;entryDy=0;" edge="1" parent="Ma0VbYQPzI4zfsSaGSA2-20" source="Ma0VbYQPzI4zfsSaGSA2-22" target="Ma0VbYQPzI4zfsSaGSA2-67">
          <mxGeometry relative="1" as="geometry" />
        </mxCell>
        <mxCell id="Ma0VbYQPzI4zfsSaGSA2-22" value="&lt;span style=&quot;font-size: 12px;&quot;&gt;&lt;b&gt;Response对象&lt;/b&gt;&lt;/span&gt;" style="rounded=1;whiteSpace=wrap;html=1;shadow=0;labelBackgroundColor=none;strokeWidth=1;fontFamily=Verdana;fontSize=8;align=center;fillColor=#ffe6cc;strokeColor=#d79b00;" vertex="1" parent="Ma0VbYQPzI4zfsSaGSA2-20">
          <mxGeometry x="53.13" y="140" width="98.75" height="30" as="geometry" />
        </mxCell>
        <mxCell id="Ma0VbYQPzI4zfsSaGSA2-139" style="edgeStyle=orthogonalEdgeStyle;rounded=0;orthogonalLoop=1;jettySize=auto;html=1;entryX=0.5;entryY=0;entryDx=0;entryDy=0;" edge="1" parent="Ma0VbYQPzI4zfsSaGSA2-20" source="Ma0VbYQPzI4zfsSaGSA2-67" target="Ma0VbYQPzI4zfsSaGSA2-107">
          <mxGeometry relative="1" as="geometry" />
        </mxCell>
        <mxCell id="Ma0VbYQPzI4zfsSaGSA2-67" value="&lt;span style=&quot;font-size: 12px;&quot;&gt;&lt;b&gt;获取项目默认版本ID&lt;br&gt;&lt;/b&gt;&lt;/span&gt;" style="rounded=1;whiteSpace=wrap;html=1;shadow=0;labelBackgroundColor=none;strokeWidth=1;fontFamily=Verdana;fontSize=8;align=center;fillColor=#ffe6cc;strokeColor=#d79b00;" vertex="1" parent="Ma0VbYQPzI4zfsSaGSA2-20">
          <mxGeometry x="62.51" y="230" width="80" height="50" as="geometry" />
        </mxCell>
        <mxCell id="Ma0VbYQPzI4zfsSaGSA2-136" style="edgeStyle=orthogonalEdgeStyle;rounded=0;orthogonalLoop=1;jettySize=auto;html=1;entryX=0.5;entryY=0;entryDx=0;entryDy=0;" edge="1" parent="Ma0VbYQPzI4zfsSaGSA2-20" source="Ma0VbYQPzI4zfsSaGSA2-63" target="Ma0VbYQPzI4zfsSaGSA2-22">
          <mxGeometry relative="1" as="geometry" />
        </mxCell>
        <mxCell id="Ma0VbYQPzI4zfsSaGSA2-63" value="&lt;font style=&quot;font-size: 12px;&quot;&gt;&lt;b&gt;是否为空&lt;/b&gt;&lt;/font&gt;" style="rhombus;whiteSpace=wrap;html=1;fillColor=#ffe6cc;strokeColor=#d79b00;fontSize=8;fontFamily=Verdana;" vertex="1" parent="Ma0VbYQPzI4zfsSaGSA2-20">
          <mxGeometry x="50" y="45" width="105" height="50" as="geometry" />
        </mxCell>
        <mxCell id="Ma0VbYQPzI4zfsSaGSA2-69" value="是" style="text;html=1;align=center;verticalAlign=middle;whiteSpace=wrap;rounded=0;" vertex="1" parent="Ma0VbYQPzI4zfsSaGSA2-20">
          <mxGeometry x="140" y="45" width="60" height="30" as="geometry" />
        </mxCell>
        <mxCell id="Ma0VbYQPzI4zfsSaGSA2-104" value="否" style="text;html=1;align=center;verticalAlign=middle;whiteSpace=wrap;rounded=0;" vertex="1" parent="Ma0VbYQPzI4zfsSaGSA2-20">
          <mxGeometry x="90" y="95" width="50" height="25" as="geometry" />
        </mxCell>
        <mxCell id="Ma0VbYQPzI4zfsSaGSA2-140" style="edgeStyle=orthogonalEdgeStyle;rounded=0;orthogonalLoop=1;jettySize=auto;html=1;entryX=0.5;entryY=0;entryDx=0;entryDy=0;" edge="1" parent="Ma0VbYQPzI4zfsSaGSA2-20" source="Ma0VbYQPzI4zfsSaGSA2-107" target="Ma0VbYQPzI4zfsSaGSA2-113">
          <mxGeometry relative="1" as="geometry" />
        </mxCell>
        <mxCell id="Ma0VbYQPzI4zfsSaGSA2-107" value="&lt;span style=&quot;font-size: 12px;&quot;&gt;&lt;b&gt;获取项目模板字段&lt;br&gt;&lt;/b&gt;&lt;/span&gt;" style="rounded=1;whiteSpace=wrap;html=1;shadow=0;labelBackgroundColor=none;strokeWidth=1;fontFamily=Verdana;fontSize=8;align=center;fillColor=#ffe6cc;strokeColor=#d79b00;" vertex="1" parent="Ma0VbYQPzI4zfsSaGSA2-20">
          <mxGeometry x="62.499999999999986" y="320" width="80" height="50" as="geometry" />
        </mxCell>
        <mxCell id="Ma0VbYQPzI4zfsSaGSA2-113" value="&lt;b style=&quot;font-size: 12px;&quot;&gt;创建监听器对象&lt;/b&gt;&lt;span style=&quot;font-size: 12px;&quot;&gt;&lt;b&gt;&lt;/b&gt;&lt;/span&gt;" style="rounded=1;whiteSpace=wrap;html=1;shadow=0;labelBackgroundColor=none;strokeWidth=1;fontFamily=Verdana;fontSize=8;align=center;fillColor=#ffe6cc;strokeColor=#d79b00;" vertex="1" parent="Ma0VbYQPzI4zfsSaGSA2-20">
          <mxGeometry x="62.499999999999986" y="430" width="80" height="50" as="geometry" />
        </mxCell>
        <mxCell id="Ma0VbYQPzI4zfsSaGSA2-130" value="&lt;span style=&quot;font-size: 12px;&quot;&gt;&lt;b&gt;结果返回&lt;/b&gt;&lt;/span&gt;" style="rounded=1;whiteSpace=wrap;html=1;shadow=0;labelBackgroundColor=none;strokeWidth=1;fontFamily=Verdana;fontSize=8;align=center;fillColor=#ffe6cc;strokeColor=#d79b00;" vertex="1" parent="Ma0VbYQPzI4zfsSaGSA2-20">
          <mxGeometry x="60" y="670" width="80" height="50" as="geometry" />
        </mxCell>
        <mxCell id="Ma0VbYQPzI4zfsSaGSA2-33" value="Listener" style="swimlane;html=1;startSize=20;fillColor=#fff2cc;strokeColor=#d6b656;" vertex="1" parent="Ma0VbYQPzI4zfsSaGSA2-1">
          <mxGeometry x="530" y="20" width="360" height="780" as="geometry" />
        </mxCell>
        <mxCell id="Ma0VbYQPzI4zfsSaGSA2-34" value="&lt;h5&gt;&lt;span style=&quot;font-size: 12px;&quot;&gt;统计成功/失败数量&lt;/span&gt;&lt;/h5&gt;" style="rounded=1;whiteSpace=wrap;html=1;shadow=0;labelBackgroundColor=none;strokeWidth=1;fontFamily=Verdana;fontSize=8;align=center;fillColor=#e1d5e7;strokeColor=#9673a6;" vertex="1" parent="Ma0VbYQPzI4zfsSaGSA2-33">
          <mxGeometry x="140" y="600" width="100" height="50" as="geometry" />
        </mxCell>
        <mxCell id="Ma0VbYQPzI4zfsSaGSA2-143" style="edgeStyle=orthogonalEdgeStyle;rounded=0;orthogonalLoop=1;jettySize=auto;html=1;entryX=0;entryY=0.5;entryDx=0;entryDy=0;" edge="1" parent="Ma0VbYQPzI4zfsSaGSA2-33" source="Ma0VbYQPzI4zfsSaGSA2-36" target="Ma0VbYQPzI4zfsSaGSA2-115">
          <mxGeometry relative="1" as="geometry" />
        </mxCell>
        <mxCell id="Ma0VbYQPzI4zfsSaGSA2-36" value="&lt;span style=&quot;font-size: 12px;&quot;&gt;&lt;b&gt;解析Excel数据&lt;/b&gt;&lt;/span&gt;" style="rounded=1;whiteSpace=wrap;html=1;shadow=0;labelBackgroundColor=none;strokeWidth=1;fontFamily=Verdana;fontSize=8;align=center;fillColor=#e1d5e7;strokeColor=#9673a6;" vertex="1" parent="Ma0VbYQPzI4zfsSaGSA2-33">
          <mxGeometry x="20" y="105" width="110" height="50" as="geometry" />
        </mxCell>
        <mxCell id="Ma0VbYQPzI4zfsSaGSA2-145" style="edgeStyle=orthogonalEdgeStyle;rounded=0;orthogonalLoop=1;jettySize=auto;html=1;entryX=0.5;entryY=0;entryDx=0;entryDy=0;" edge="1" parent="Ma0VbYQPzI4zfsSaGSA2-33" source="Ma0VbYQPzI4zfsSaGSA2-112" target="Ma0VbYQPzI4zfsSaGSA2-116">
          <mxGeometry relative="1" as="geometry" />
        </mxCell>
        <mxCell id="Ma0VbYQPzI4zfsSaGSA2-112" value="&lt;span style=&quot;font-size: 12px;&quot;&gt;&lt;b&gt;转换为FunctionnalCaseData对象&lt;/b&gt;&lt;/span&gt;" style="rounded=1;whiteSpace=wrap;html=1;shadow=0;labelBackgroundColor=none;strokeWidth=1;fontFamily=Verdana;fontSize=8;align=center;fillColor=#e1d5e7;strokeColor=#9673a6;" vertex="1" parent="Ma0VbYQPzI4zfsSaGSA2-33">
          <mxGeometry x="90" y="210" width="160" height="50" as="geometry" />
        </mxCell>
        <mxCell id="Ma0VbYQPzI4zfsSaGSA2-144" style="edgeStyle=orthogonalEdgeStyle;rounded=0;orthogonalLoop=1;jettySize=auto;html=1;entryX=0.5;entryY=0;entryDx=0;entryDy=0;" edge="1" parent="Ma0VbYQPzI4zfsSaGSA2-33" source="Ma0VbYQPzI4zfsSaGSA2-115" target="Ma0VbYQPzI4zfsSaGSA2-112">
          <mxGeometry relative="1" as="geometry" />
        </mxCell>
        <mxCell id="Ma0VbYQPzI4zfsSaGSA2-115" value="&lt;h5&gt;&lt;span style=&quot;font-size: 12px;&quot;&gt;合并单元格数据处理&lt;/span&gt;&lt;/h5&gt;" style="rounded=1;whiteSpace=wrap;html=1;shadow=0;labelBackgroundColor=none;strokeWidth=1;fontFamily=Verdana;fontSize=8;align=center;fillColor=#e1d5e7;strokeColor=#9673a6;" vertex="1" parent="Ma0VbYQPzI4zfsSaGSA2-33">
          <mxGeometry x="210" y="102.5" width="120" height="55" as="geometry" />
        </mxCell>
        <mxCell id="Ma0VbYQPzI4zfsSaGSA2-146" style="edgeStyle=orthogonalEdgeStyle;rounded=0;orthogonalLoop=1;jettySize=auto;html=1;entryX=0.5;entryY=0;entryDx=0;entryDy=0;" edge="1" parent="Ma0VbYQPzI4zfsSaGSA2-33" source="Ma0VbYQPzI4zfsSaGSA2-116" target="Ma0VbYQPzI4zfsSaGSA2-117">
          <mxGeometry relative="1" as="geometry">
            <Array as="points">
              <mxPoint x="170" y="380" />
              <mxPoint x="263" y="380" />
              <mxPoint x="263" y="415" />
            </Array>
          </mxGeometry>
        </mxCell>
        <mxCell id="Ma0VbYQPzI4zfsSaGSA2-206" style="edgeStyle=orthogonalEdgeStyle;rounded=0;orthogonalLoop=1;jettySize=auto;html=1;entryX=0.5;entryY=0;entryDx=0;entryDy=0;" edge="1" parent="Ma0VbYQPzI4zfsSaGSA2-33" source="Ma0VbYQPzI4zfsSaGSA2-116" target="Ma0VbYQPzI4zfsSaGSA2-129">
          <mxGeometry relative="1" as="geometry">
            <Array as="points">
              <mxPoint x="170" y="380" />
              <mxPoint x="60" y="380" />
            </Array>
          </mxGeometry>
        </mxCell>
        <mxCell id="Ma0VbYQPzI4zfsSaGSA2-116" value="&lt;h5&gt;&lt;span style=&quot;font-size: 12px;&quot;&gt;数据规则校验和处理&lt;/span&gt;&lt;/h5&gt;" style="rounded=1;whiteSpace=wrap;html=1;shadow=0;labelBackgroundColor=none;strokeWidth=1;fontFamily=Verdana;fontSize=8;align=center;fillColor=#e1d5e7;strokeColor=#9673a6;" vertex="1" parent="Ma0VbYQPzI4zfsSaGSA2-33">
          <mxGeometry x="120" y="300" width="100" height="60" as="geometry" />
        </mxCell>
        <mxCell id="Ma0VbYQPzI4zfsSaGSA2-199" style="edgeStyle=orthogonalEdgeStyle;rounded=0;orthogonalLoop=1;jettySize=auto;html=1;entryX=0.5;entryY=0;entryDx=0;entryDy=0;" edge="1" parent="Ma0VbYQPzI4zfsSaGSA2-33" source="Ma0VbYQPzI4zfsSaGSA2-117" target="Ma0VbYQPzI4zfsSaGSA2-125">
          <mxGeometry relative="1" as="geometry" />
        </mxCell>
        <mxCell id="Ma0VbYQPzI4zfsSaGSA2-117" value="&lt;span style=&quot;font-size: 12px;&quot;&gt;&lt;b&gt;新增/更新&lt;/b&gt;&lt;/span&gt;" style="rhombus;whiteSpace=wrap;html=1;fillColor=#e1d5e7;strokeColor=#9673a6;fontSize=8;fontFamily=Verdana;" vertex="1" parent="Ma0VbYQPzI4zfsSaGSA2-33">
          <mxGeometry x="210" y="415" width="105" height="50" as="geometry" />
        </mxCell>
        <mxCell id="Ma0VbYQPzI4zfsSaGSA2-211" style="edgeStyle=orthogonalEdgeStyle;rounded=0;orthogonalLoop=1;jettySize=auto;html=1;entryX=0.5;entryY=0;entryDx=0;entryDy=0;" edge="1" parent="Ma0VbYQPzI4zfsSaGSA2-33" source="Ma0VbYQPzI4zfsSaGSA2-125" target="Ma0VbYQPzI4zfsSaGSA2-34">
          <mxGeometry relative="1" as="geometry" />
        </mxCell>
        <mxCell id="Ma0VbYQPzI4zfsSaGSA2-125" value="&lt;h5&gt;&lt;span style=&quot;font-size: 12px;&quot;&gt;新增列表&lt;/span&gt;&lt;/h5&gt;" style="rounded=1;whiteSpace=wrap;html=1;shadow=0;labelBackgroundColor=none;strokeWidth=1;fontFamily=Verdana;fontSize=8;align=center;fillColor=#e1d5e7;strokeColor=#9673a6;" vertex="1" parent="Ma0VbYQPzI4zfsSaGSA2-33">
          <mxGeometry x="140" y="500" width="100" height="40" as="geometry" />
        </mxCell>
        <mxCell id="Ma0VbYQPzI4zfsSaGSA2-212" style="edgeStyle=orthogonalEdgeStyle;rounded=0;orthogonalLoop=1;jettySize=auto;html=1;entryX=0.5;entryY=0;entryDx=0;entryDy=0;" edge="1" parent="Ma0VbYQPzI4zfsSaGSA2-33" source="Ma0VbYQPzI4zfsSaGSA2-126" target="Ma0VbYQPzI4zfsSaGSA2-34">
          <mxGeometry relative="1" as="geometry">
            <Array as="points">
              <mxPoint x="305" y="570" />
              <mxPoint x="190" y="570" />
            </Array>
          </mxGeometry>
        </mxCell>
        <mxCell id="Ma0VbYQPzI4zfsSaGSA2-126" value="&lt;h5&gt;&lt;span style=&quot;font-size: 12px;&quot;&gt;更新列表&lt;/span&gt;&lt;/h5&gt;" style="rounded=1;whiteSpace=wrap;html=1;shadow=0;labelBackgroundColor=none;strokeWidth=1;fontFamily=Verdana;fontSize=8;align=center;fillColor=#e1d5e7;strokeColor=#9673a6;" vertex="1" parent="Ma0VbYQPzI4zfsSaGSA2-33">
          <mxGeometry x="260" y="500" width="90" height="40" as="geometry" />
        </mxCell>
        <mxCell id="Ma0VbYQPzI4zfsSaGSA2-210" style="edgeStyle=orthogonalEdgeStyle;rounded=0;orthogonalLoop=1;jettySize=auto;html=1;entryX=0.5;entryY=0;entryDx=0;entryDy=0;" edge="1" parent="Ma0VbYQPzI4zfsSaGSA2-33" source="Ma0VbYQPzI4zfsSaGSA2-129" target="Ma0VbYQPzI4zfsSaGSA2-34">
          <mxGeometry relative="1" as="geometry">
            <Array as="points">
              <mxPoint x="60" y="570" />
              <mxPoint x="190" y="570" />
            </Array>
          </mxGeometry>
        </mxCell>
        <mxCell id="Ma0VbYQPzI4zfsSaGSA2-129" value="&lt;h5&gt;&lt;span style=&quot;font-size: 12px;&quot;&gt;错误列表&lt;/span&gt;&lt;/h5&gt;" style="rounded=1;whiteSpace=wrap;html=1;shadow=0;labelBackgroundColor=none;strokeWidth=1;fontFamily=Verdana;fontSize=8;align=center;fillColor=#e1d5e7;strokeColor=#9673a6;" vertex="1" parent="Ma0VbYQPzI4zfsSaGSA2-33">
          <mxGeometry x="10" y="500" width="100" height="40" as="geometry" />
        </mxCell>
        <mxCell id="Ma0VbYQPzI4zfsSaGSA2-196" value="通过" style="text;html=1;align=center;verticalAlign=middle;whiteSpace=wrap;rounded=0;" vertex="1" parent="Ma0VbYQPzI4zfsSaGSA2-33">
          <mxGeometry x="210" y="350" width="60" height="30" as="geometry" />
        </mxCell>
        <mxCell id="Ma0VbYQPzI4zfsSaGSA2-198" value="不通过" style="text;html=1;align=center;verticalAlign=middle;whiteSpace=wrap;rounded=0;" vertex="1" parent="Ma0VbYQPzI4zfsSaGSA2-33">
          <mxGeometry x="60" y="350" width="60" height="30" as="geometry" />
        </mxCell>
        <mxCell id="Ma0VbYQPzI4zfsSaGSA2-200" style="edgeStyle=orthogonalEdgeStyle;rounded=0;orthogonalLoop=1;jettySize=auto;html=1;entryX=0.556;entryY=0;entryDx=0;entryDy=0;entryPerimeter=0;" edge="1" parent="Ma0VbYQPzI4zfsSaGSA2-33" source="Ma0VbYQPzI4zfsSaGSA2-117" target="Ma0VbYQPzI4zfsSaGSA2-126">
          <mxGeometry relative="1" as="geometry" />
        </mxCell>
        <mxCell id="Ma0VbYQPzI4zfsSaGSA2-37" value="DB" style="swimlane;html=1;startSize=20;fillColor=#fff2cc;strokeColor=#d6b656;" vertex="1" parent="Ma0VbYQPzI4zfsSaGSA2-1">
          <mxGeometry x="890" y="20" width="195" height="780" as="geometry" />
        </mxCell>
        <mxCell id="Ma0VbYQPzI4zfsSaGSA2-38" value="" style="edgeStyle=orthogonalEdgeStyle;rounded=0;orthogonalLoop=1;jettySize=auto;html=1;" edge="1" parent="Ma0VbYQPzI4zfsSaGSA2-37">
          <mxGeometry relative="1" as="geometry">
            <mxPoint x="80" y="460" as="targetPoint" />
          </mxGeometry>
        </mxCell>
        <mxCell id="Ma0VbYQPzI4zfsSaGSA2-39" style="edgeStyle=orthogonalEdgeStyle;rounded=1;html=1;labelBackgroundColor=none;startArrow=none;startFill=0;startSize=5;endArrow=classicThin;endFill=1;endSize=5;jettySize=auto;orthogonalLoop=1;strokeWidth=1;fontFamily=Verdana;fontSize=8" edge="1" parent="Ma0VbYQPzI4zfsSaGSA2-37">
          <mxGeometry relative="1" as="geometry">
            <mxPoint x="80" y="460" as="sourcePoint" />
          </mxGeometry>
        </mxCell>
        <mxCell id="Ma0VbYQPzI4zfsSaGSA2-40" style="edgeStyle=orthogonalEdgeStyle;rounded=1;html=1;labelBackgroundColor=none;startArrow=none;startFill=0;startSize=5;endArrow=classicThin;endFill=1;endSize=5;jettySize=auto;orthogonalLoop=1;strokeWidth=1;fontFamily=Verdana;fontSize=8" edge="1" parent="Ma0VbYQPzI4zfsSaGSA2-37">
          <mxGeometry relative="1" as="geometry">
            <mxPoint x="80" y="540" as="sourcePoint" />
          </mxGeometry>
        </mxCell>
        <mxCell id="Ma0VbYQPzI4zfsSaGSA2-127" value="&lt;b&gt;&lt;font face=&quot;Verdana&quot;&gt;Mysql&lt;/font&gt;&lt;/b&gt;" style="shape=cylinder3;whiteSpace=wrap;html=1;boundedLbl=1;backgroundOutline=1;size=15;fillColor=#fff2cc;strokeColor=#d6b656;" vertex="1" parent="Ma0VbYQPzI4zfsSaGSA2-37">
          <mxGeometry x="55" y="400" width="85" height="70" as="geometry" />
        </mxCell>
        <mxCell id="Ma0VbYQPzI4zfsSaGSA2-135" style="edgeStyle=orthogonalEdgeStyle;rounded=0;orthogonalLoop=1;jettySize=auto;html=1;" edge="1" parent="Ma0VbYQPzI4zfsSaGSA2-1" source="Ma0VbYQPzI4zfsSaGSA2-63" target="Ma0VbYQPzI4zfsSaGSA2-131">
          <mxGeometry relative="1" as="geometry" />
        </mxCell>
        <mxCell id="Ma0VbYQPzI4zfsSaGSA2-141" style="edgeStyle=orthogonalEdgeStyle;rounded=0;orthogonalLoop=1;jettySize=auto;html=1;entryX=0;entryY=0.5;entryDx=0;entryDy=0;" edge="1" parent="Ma0VbYQPzI4zfsSaGSA2-1" source="Ma0VbYQPzI4zfsSaGSA2-113" target="Ma0VbYQPzI4zfsSaGSA2-36">
          <mxGeometry relative="1" as="geometry" />
        </mxCell>
        <mxCell id="Ma0VbYQPzI4zfsSaGSA2-213" style="edgeStyle=orthogonalEdgeStyle;rounded=0;orthogonalLoop=1;jettySize=auto;html=1;entryX=0.5;entryY=0;entryDx=0;entryDy=0;" edge="1" parent="Ma0VbYQPzI4zfsSaGSA2-1" source="Ma0VbYQPzI4zfsSaGSA2-34" target="Ma0VbYQPzI4zfsSaGSA2-130">
          <mxGeometry relative="1" as="geometry" />
        </mxCell>
        <mxCell id="Ma0VbYQPzI4zfsSaGSA2-118" value="前端展示" style="swimlane;html=1;startSize=20;fillColor=#fff2cc;strokeColor=#d6b656;" vertex="1" parent="Ma0VbYQPzI4zfsSaGSA2-1">
          <mxGeometry x="1085" y="20" width="160" height="780" as="geometry" />
        </mxCell>
        <mxCell id="Ma0VbYQPzI4zfsSaGSA2-119" value="" style="edgeStyle=orthogonalEdgeStyle;rounded=0;orthogonalLoop=1;jettySize=auto;html=1;" edge="1" parent="Ma0VbYQPzI4zfsSaGSA2-118">
          <mxGeometry relative="1" as="geometry">
            <mxPoint x="80" y="460" as="targetPoint" />
          </mxGeometry>
        </mxCell>
        <mxCell id="Ma0VbYQPzI4zfsSaGSA2-120" style="edgeStyle=orthogonalEdgeStyle;rounded=1;html=1;labelBackgroundColor=none;startArrow=none;startFill=0;startSize=5;endArrow=classicThin;endFill=1;endSize=5;jettySize=auto;orthogonalLoop=1;strokeWidth=1;fontFamily=Verdana;fontSize=8" edge="1" parent="Ma0VbYQPzI4zfsSaGSA2-118">
          <mxGeometry relative="1" as="geometry">
            <mxPoint x="80" y="460" as="sourcePoint" />
          </mxGeometry>
        </mxCell>
        <mxCell id="Ma0VbYQPzI4zfsSaGSA2-121" style="edgeStyle=orthogonalEdgeStyle;rounded=1;html=1;labelBackgroundColor=none;startArrow=none;startFill=0;startSize=5;endArrow=classicThin;endFill=1;endSize=5;jettySize=auto;orthogonalLoop=1;strokeWidth=1;fontFamily=Verdana;fontSize=8" edge="1" parent="Ma0VbYQPzI4zfsSaGSA2-118">
          <mxGeometry relative="1" as="geometry">
            <mxPoint x="80" y="540" as="sourcePoint" />
          </mxGeometry>
        </mxCell>
        <mxCell id="Ma0VbYQPzI4zfsSaGSA2-122" value="&lt;span style=&quot;font-size: 12px;&quot;&gt;&lt;b&gt;结果展示&lt;/b&gt;&lt;/span&gt;" style="rounded=1;whiteSpace=wrap;html=1;shadow=0;labelBackgroundColor=none;strokeWidth=1;fontFamily=Verdana;fontSize=8;align=center;fillColor=#d5e8d4;strokeColor=#82b366;" vertex="1" parent="Ma0VbYQPzI4zfsSaGSA2-118">
          <mxGeometry x="30" y="670" width="95" height="50" as="geometry" />
        </mxCell>
        <mxCell id="Ma0VbYQPzI4zfsSaGSA2-131" value="&lt;span style=&quot;font-size: 12px;&quot;&gt;&lt;b&gt;异常展示&lt;/b&gt;&lt;/span&gt;" style="rounded=1;whiteSpace=wrap;html=1;shadow=0;labelBackgroundColor=none;strokeWidth=1;fontFamily=Verdana;fontSize=8;align=center;fillColor=#d5e8d4;strokeColor=#82b366;" vertex="1" parent="Ma0VbYQPzI4zfsSaGSA2-118">
          <mxGeometry x="35" y="40" width="90" height="60" as="geometry" />
        </mxCell>
        <mxCell id="Ma0VbYQPzI4zfsSaGSA2-215" style="edgeStyle=orthogonalEdgeStyle;rounded=0;orthogonalLoop=1;jettySize=auto;html=1;entryX=0;entryY=0.5;entryDx=0;entryDy=0;" edge="1" parent="Ma0VbYQPzI4zfsSaGSA2-1" source="Ma0VbYQPzI4zfsSaGSA2-130" target="Ma0VbYQPzI4zfsSaGSA2-122">
          <mxGeometry relative="1" as="geometry" />
        </mxCell>
        <mxCell id="Ma0VbYQPzI4zfsSaGSA2-217" style="edgeStyle=orthogonalEdgeStyle;rounded=0;orthogonalLoop=1;jettySize=auto;html=1;entryX=-0.022;entryY=0.574;entryDx=0;entryDy=0;entryPerimeter=0;" edge="1" parent="Ma0VbYQPzI4zfsSaGSA2-1" source="Ma0VbYQPzI4zfsSaGSA2-117" target="Ma0VbYQPzI4zfsSaGSA2-127">
          <mxGeometry relative="1" as="geometry" />
        </mxCell>
        <mxCell id="Ma0VbYQPzI4zfsSaGSA2-218" style="edgeStyle=orthogonalEdgeStyle;rounded=0;orthogonalLoop=1;jettySize=auto;html=1;" edge="1" parent="Ma0VbYQPzI4zfsSaGSA2-1" source="Ma0VbYQPzI4zfsSaGSA2-14" target="Ma0VbYQPzI4zfsSaGSA2-63">
          <mxGeometry relative="1" as="geometry">
            <Array as="points">
              <mxPoint x="220" y="90" />
            </Array>
          </mxGeometry>
        </mxCell>
      </root>
    </mxGraphModel>
  </diagram>
</mxfile>
